<?xml version="1.0" encoding="utf-8"?>
<!-- Generator: Adobe Illustrator 26.0.3, SVG Export Plug-In . SVG Version: 6.00 Build 0)  -->
<svg version="1.1" id="Layer_1" xmlns="http://www.w3.org/2000/svg" xmlns:xlink="http://www.w3.org/1999/xlink" x="0px" y="0px"
	 viewBox="0 0 2071.9 1450.6" style="enable-background:new 0 0 2071.9 1450.6;" xml:space="preserve">
<style type="text/css">
	.st0{fill:#c9c8cc;}
</style>
<g id="qkbdFB.tif_00000048469444799757238950000009364894060900250499_">
	<g>
		<path class="st0" d="M1511.5,2c16.2,42.6,26.6,86.3,24.4,132.3c-1.1,21.8-8.4,32.9-29.3,38.8c-25.8,7.3-45.3,22.9-61.7,43.2
			c-17.9,22.2-23.6,23.9-50.3,13.1c-18.2-7.3-37.3-12.5-54-23.4c-16.6-10.9-31.1-23.5-40.6-41.6c-22.8-43.4-58.2-74.7-99.1-100.6
			c-17-10.8-33.1-22.9-47.5-37.2c-6.8-6.8-12.2-14.2-11.1-24.6C1265.3,2,1388.4,2,1511.5,2z"/>
		<path class="st0" d="M1854.2,2c14,17.6,32.8,29.6,50.7,42.5c29.5,21.3,36.9,39.4,27.4,74.6c-2.4,9-4.5,18.1-7.2,27.1
			c-8.7,29.1-20.8,38.7-51.4,38.1c-36.4-0.7-71.9,5-105.9,16.1c-45.9,15-83.7,7.2-116-29.4c-16.3-18.4-34.9-34.7-52.1-52.2
			c-12.7-12.9-14.3-23.5-5.5-38.5c15.5-26.3,31.5-52.2,47.3-78.3C1712.4,2,1783.3,2,1854.2,2z"/>
		<path class="st0" d="M796.6,2c14.6,11.6,28.8,23.9,44,34.6c18.2,12.9,21.9,31.3,19.3,50.7c-2.2,16.9-8.3,33.3-12.9,49.8
			c-5.7,20.5-20.8,30.1-40.7,29.8c-46.3-0.6-90.5,10-134.9,21.4c-31.3,8-59.1,0.7-82.5-22.7c-20.5-20.5-41.9-40.1-62.4-60.5
			c-16-16-17.1-25-6.1-44.6c11-19.7,22.7-39.1,34-58.6C635.1,2,715.9,2,796.6,2z"/>
		<path class="st0" d="M297.4,2c10.6,14.7,25.7,24,40,34.4c21.8,15.9,45.1,30,63.7,49.9c6.8,7.3,14.1,14.7,10.4,25.8
			c-3.7,11-13.6,13.2-23.6,14.7c-8.7,1.4-17.5,2.6-26.2,4c-37.8,5.9-63.3,29.7-84.8,58.9c-10.5,14.3-19.2,29.7-31.3,42.9
			c-10,10.9-22,15.3-35.9,9c-39.8-18.1-80.2-34.9-117.9-57.4c-10.3-6.1-18.8-14.1-25.3-24.3c-16.3-25.6-14.1-47.7,13-60.8
			C124.8,77.2,154.3,41,182.2,2C220.6,2,259,2,297.4,2z"/>
		<path class="st0" d="M2,648.5c8.3-14,19.6-14.5,32.8-7.4c34.3,18.3,68.6,36.4,106.3,47.4c34.3,10,69.9,11.4,104.5,18.4
			c6.7,1.4,13.5,3,19.9,5.4c19.4,7.5,23,20.6,9.3,36.6c-14.7,17.2-30.7,33.3-49.1,46.7c-27.5,20.1-56.5,37.6-86.6,53.5
			c-23.2,12.2-45.7,12-68.7-1.5c-24.2-14.3-48.6-28-68.4-48.4C2,748.9,2,698.7,2,648.5z"/>
		<path class="st0" d="M2,1141.6c14.1-2.5,23.7,2.7,29.4,15.9c8.6,19.8,23,33.9,43,42.2c16.6,6.9,24.2,21.3,28.7,37.2
			c11.8,41.7,33.8,77,64.4,107.4c7.2,7.2,12.9,16,19,24.3c8,10.8,6.3,20.7-4.8,27.7c-19,12.1-33.9,28.3-48.3,45.1
			c-4.6,5.4-9.4,8-16.3,7.9c-26-0.2-52.1-0.3-78.1,0.1c-8.4,0.1-13.7-3.4-18.2-10.1c-6-9-12.6-17.5-18.9-26.2
			C2,1322.6,2,1232.1,2,1141.6z"/>
		<path class="st0" d="M1106.8,2c4.3,11.5,8.8,22.9,13,34.5c12.5,35.1-5.1,65.1-41.8,70.2c-32.8,4.6-65.6-2.8-98.4-2.1
			c-17.6,0.4-35.3-1.4-53-1.7c-36.4-0.7-51-17.6-46.8-54.3C881.9,30.2,890.2,15,903,2C970.9,2,1038.9,2,1106.8,2z"/>
		<path class="st0" d="M2,179.1c40.2,35.1,83.6,66.6,119.9,106c17.4,19,14.8,31.6-7.5,44.5c-5.1,2.9-10.4,5.5-15.8,7.9
			c-37.9,16.6-44.6,14.1-63.4-11C27,315.7,15.8,307.1,2,303.1C2,261.8,2,220.5,2,179.1z"/>
		<path class="st0" d="M111.3,2c8.5,42.5-62,75.4-91.1,63.2C9.6,60.8,7.7,50.9,2,43.3C2,29.6-3.4,10.4,3.5,3.5
			C10.4-3.4,29.6,2,43.4,2C66,2,88.7,2,111.3,2z"/>
		<path class="st0" d="M504.2,2c-15.2,18.6-30.3,37.2-45.7,55.6c-5.1,6.1-12.5,9.5-19.8,5.6c-34.4-18.5-69.9-35.5-100-61.2
			C393.9,2,449,2,504.2,2z"/>
		<path class="st0" d="M2,846.3c21.7,12.8,42.9,26.2,58,46.9c11.8,16.2,6.6,28.9-13.1,33.4c-14.8,3.4-30.3,3.3-44.9,8.3
			C2,905.4,2,875.9,2,846.3z"/>
		<path class="st0" d="M2007.8,2c-2.2,6.5-4.3,13-6.7,19.4c-3.8,10.1-11.4,14.5-21.9,13.7c-19.2-1.3-38-5-56.2-10.8
			c-10.1-3.2-16.1-10.9-15.6-22.3C1940.8,2,1974.3,2,2007.8,2z"/>
		<path class="st0" d="M2,344.5c5,1.9,10.2,3.4,15,5.8c17.6,8.7,21.7,17.9,15.6,36.9c-6.8,20.9-14.8,41.4-21.3,62.3
			c-4,12.9-6.2,26.4-9.2,39.7C2,440.9,2,392.7,2,344.5z"/>
		<path class="st0" d="M1578.4,1156.8c-34.6,1.4-68.6,6.7-101.5,17.1c-42.8,13.6-79.1,6.4-110-27.3c-17.3-18.8-36.3-36-54.3-54.2
			c-13.6-13.8-14.7-24.4-4.9-41c27.7-47,55.5-94,83.3-141c16-27.2,40.3-41,71.3-43.2c7.8-0.6,15.8-0.4,23.6,0.3
			c36.4,3.2,49,11.4,56,47.2c8.1,41.5,29.1,72.1,63.9,94.7c7.8,5.1,14.6,11.7,22.2,17.1c20,14.3,23.1,34.5,19.2,56.5
			c-2.4,13.5-6.5,26.8-10.6,39.9c-7.9,25.5-19.2,33.6-46.4,34.1C1586.3,1156.8,1582.4,1156.8,1578.4,1156.8z"/>
		<path class="st0" d="M262.3,1162.6c-29.9-2.9-58.1,6.3-86.7,13.5c-8.1,2.1-16.3,3.9-24.4,5.7c-26.6,6-49.4-0.7-68.8-20
			c-21.6-21.5-43.1-43.1-63.1-66.2c-11.9-13.7-12.9-27.4-1.9-44.6c25.4-39.8,51.3-79.2,77.1-118.8c3.5-5.4,7-10.7,10.3-16.1
			c24.2-39.1,84.8-57.1,127-37.2c15.2,7.1,21.5,20.7,24.4,36.5c2.3,12.5,5.1,25,8.1,37.4c5.9,25.1,24.6,40.7,42.8,56.7
			c8.5,7.5,17.3,14.6,26.1,21.6c14.1,11.2,18.2,26.1,16.5,43.3c-1.8,18.2-6.7,35.6-12.9,52.8c-8.7,24.3-26.2,34.5-50.6,35.3
			C278.3,1162.9,270.4,1162.6,262.3,1162.6z"/>
		<path class="st0" d="M1413.7,649.3c-10.8,0.8-20.4-2.9-29.6-7.9c-24.6-13.4-49.4-26.5-73.8-40.2c-19.2-10.7-25.7-26.1-22.7-48.3
			c6.8-49.6,16.2-98.8,17.7-149.2c1.4-47.7,19.2-57.8,61.8-37.6c43.6,20.6,86.4,43,123.1,74.9c19,16.5,40.6,27.2,64.5,34.3
			c25,7.4,28.5,12.9,28.4,39.2c0,7.4-0.3,14.7-0.7,22.1c-1,19.3-10,33.2-27.1,42.6c-37.1,20.3-73.9,41.1-110.8,61.7
			C1434.9,646.4,1424.9,650.1,1413.7,649.3z"/>
		<path class="st0" d="M92.5,367.3c23.5-0.3,38.7,9.7,54.2,17.8c34.2,17.8,65.6,40.1,93.4,66.5c17.7,16.8,37.1,28.2,60.4,34.9
			c24,6.9,27,12,27.2,36.8c0.2,32.8-11.8,57.4-43.3,72c-40.5,18.9-78.3,43.1-119.7,60.3c-12.3,5.1-23.8,5.4-35.6,0.3
			c-31.7-13.7-60.7-32.3-89.1-51.7c-12.1-8.2-16.1-21-13-35.2c7.8-36,16-71.9,24.1-107.8c4.1-18.2,8.2-36.3,10.4-55
			C64.3,380.4,77.3,367.3,92.5,367.3z"/>
		<path class="st0" d="M633.8,237c56-2,111.8-5.3,167.6-10.7c31-3,47.9,13.4,42.1,43.9c-7.3,38.1-15.1,76.1-21.1,114.5
			c-2.8,17.9-15.6,29.8-33.5,33.4c-24.4,5-42.9,17.6-58.4,36.8c-23.9,29.6-42.6,29.8-70.3,3.1c-19-18.2-34.7-38.8-46.9-62.1
			c-20.1-38.2-43.3-75-55.8-116.9c-8.2-27.2-3.6-34.2,24.9-38c8.8-1.2,17.6-2.2,26.4-3C617,237.5,625.4,237.3,633.8,237z"/>
		<path class="st0" d="M901.1,374.7c26.3,0.2,45.9,9.2,64.7,20.3c26.7,15.8,53.9,30.4,81.9,43.7c35.3,16.7,48.5,42.8,38.1,74.3
			c-12.7,38.7-45.8,61.1-82.1,53.2c-23.9-5.2-44.6-0.5-64.8,11.6c-20.2,12.2-41.2,23.1-63.5,31.1c-23.1,8.4-38.9,1.3-46-22
			c-9-29.6-29.8-51.7-46.4-76.5c-6.8-10.2-9.7-19.9-1.8-29.7c24.3-30.2,46.2-62.5,76.5-87.5C871.7,382,887.3,375.8,901.1,374.7z"/>
		<path class="st0" d="M1385.8,1449.4c-5.9,0-12-0.9-17.7,0.2c-26.2,4.8-43.1-6.4-56.6-28.3c-12.6-20.4-26.8-40-42.8-58.1
			c-6.6-7.5-9.6-16.7-7.7-27.4c5.9-33.5,8.9-67.2,7.4-101.2c-0.9-22.2,2-44.1,3.7-66.2c1.1-13.7,8.1-23.4,22-26
			c13.6-2.6,25.3,0.6,32,14.6c10,20.8,25.5,35.7,47.6,43.6c13.3,4.7,22.1,14.7,26.6,27.9c16,46.5,42,86.3,78.8,119.2
			c7.6,6.8,13.4,15.7,19.2,24.2c5.8,8.6,4.4,16.6-4.6,22.9c-18.6,13.1-35.2,28.4-48.8,46.6c-4.6,6.2-10.3,8.3-17.8,8.1
			C1413.4,1449.2,1399.6,1449.4,1385.8,1449.4z"/>
		<path class="st0" d="M1044.8,998.2c-0.5-21.2,8.1-34.1,25.2-41.8c15.2-6.9,30.3-14.2,45.3-21.5c16.7-8.1,26.3-21.6,29.3-39.9
			c4.1-24.3,14-45.9,29.6-65c7.7-9.5,17.2-13.5,28.6-10.5c42.5,11.1,84.5,23.3,119.3,52.1c18.8,15.5,24.3,31.3,12.8,50.2
			c-21.5,35.3-49.4,66-74.7,98.5c-10.3,13.3-27,19.4-43.2,24.3c-40.7,12.3-82.4,19.5-124.9,20.1c-32.9,0.4-39.3-5.7-44.2-37.9
			C1046.4,1016.5,1045.6,1006.2,1044.8,998.2z"/>
		<path class="st0" d="M1580.5,427.8c-7,0-13.6-2-20-4.5c-31.6-12.4-63.3-24.6-94.8-37.2c-18.7-7.5-34.4-19.2-45.2-36.5
			c-8.9-14.3-6.2-32.6,8.6-39.9c46.1-23,78-60.9,108.5-100.2c14.8-19,32.1-24.2,54.4-17.7c11.5,3.4,22.8,7.7,31.4,15.8
			c26.5,25,58.2,41.8,89.3,59.7c10.7,6.1,21.3,12.7,29.2,22.2c10.3,12.3,7.7,22.9-7.1,29c-6.7,2.8-14.1,5-21.3,5.6
			c-39.4,3.5-66.2,24.9-85.6,57.9c-6.2,10.6-13,20.8-20.2,30.8C1601.1,421.8,1592.7,428.5,1580.5,427.8z"/>
		<path class="st0" d="M348.7,205.4c19.6,2.4,36.9,5.7,50.7,18.5c25.8,24,55.3,42.5,85.9,59.3c8.8,4.8,16.1,11.3,22.7,18.6
			c13.2,14.6,9.4,27.8-9.4,33c-6.1,1.7-12.5,2.9-18.8,3.6c-41.6,4.1-72.4,25.5-96.1,58.8c-8,11.2-16.4,22.1-25.2,32.6
			c-9.9,11.8-22.6,15.5-37.1,9.7c-33.7-13.6-67.6-26.9-100.9-41.5c-18.9-8.3-34.3-20.9-40.1-42.4c-3.5-13.2-0.6-24.5,11.5-30.2
			c48.2-23.1,84.6-59.9,119.6-98.8C321.4,215.5,333.7,205.5,348.7,205.4z"/>
		<path class="st0" d="M1536.1,811.2c0.9-8,4.5-16,10.2-23.1c23.9-29.4,54.7-47.7,91.3-56c14.6-3.3,27.6,2.2,33.8,15.3
			c27.4,58.4,73,102,117.2,146.8c3.4,3.5,6.8,7.2,9.7,11.1c14.6,20.3,10.8,36.4-12.2,45.9c-21.3,8.9-43.4,16-65.3,23.5
			c-16.5,5.6-31.1,14.5-45.4,24.1c-16.8,11.3-25.2,9.4-37.9-5.8c-20.5-24.5-41.7-48.5-60.3-74.6
			C1556.5,889.4,1535.5,835.2,1536.1,811.2z"/>
		<path class="st0" d="M255,823.1c-0.4-13.3,5.1-24,14.2-33c22.8-22.5,49.1-39.3,80.1-48.2c27.4-7.9,42.3-3,51.8,24
			c16.5,46.7,46.7,82.6,81.3,116c11.7,11.3,21.6,24.4,27.8,39.6c7.4,18.4,3.2,28.8-14.7,36.9c-6.7,3-13.7,5.6-20.8,7.4
			c-33.2,8.5-63.7,23.2-93.2,40.2c-20.2,11.6-24.9,10.5-39.4-8c-19.4-24.8-39.6-49-56.3-75.8C266.9,892,259.3,858,255,823.1z"/>
		<path class="st0" d="M2070.6,391.3c0,28.1,0,28.3-24.8,36.4c-33.6,11-67.4,21.2-96.9,42.1c-14.8,10.5-23.5,8.3-34.7-5
			c-18.3-21.8-36.5-43.8-54.2-66.1c-24.6-31.1-39.4-66.6-46.9-105.4c-2.7-14.1,0.7-26.2,9.8-37.1c22.2-26.6,50.4-43.6,83.6-52.4
			c20-5.3,33.5-1.3,42.3,17.1c25.2,52.6,64.8,93.4,106,132.9C2066.5,365.2,2074,377.1,2070.6,391.3z"/>
		<path class="st0" d="M850.5,1290.7c0.6,8.2-2.6,15.8-7.7,22.7c-20.7,28.1-41.4,56.2-62.2,84.2c-7.5,10.1-17.5,14.3-29.8,10.8
			c-59.4-16.7-119.5-15.6-180-7.3c-9.2,1.3-18.7,1.1-28,0.7c-14.1-0.5-19.8-6.5-18.4-20.8c2.9-29.7,14.5-55.1,40.3-72
			c20.3-13.3,41.8-24.1,66.1-28c26.6-4.3,47.1-18.8,64.2-38.8c14.2-16.6,30.4-30.8,49.9-40.9c19.3-10,31-8.4,46.7,6.8
			c16.6,16.1,32.4,32.9,46.9,51C845.7,1268.1,850.5,1278.2,850.5,1290.7z"/>
		<path class="st0" d="M717.6,660.5c-30.7-6-66.2,0.9-102,2.3c-38.7,1.4-74.1-13.8-108.3-30c-15.4-7.3-20.3-25.8-15.1-42.3
			c5.7-18.2,16.6-33.3,29.9-46.7c19-19.3,37.9-38.2,51.6-62.1c9.5-16.5,26.7-21.3,45-14.5c8.2,3,16.7,7,23.1,12.7
			c34.3,30.4,75.6,46.7,118,61.5c36.3,12.6,48.6,49.9,29.1,83.6C774.5,649.9,754.5,660.6,717.6,660.5z"/>
		<path class="st0" d="M1259.9,701.4c1.5-13.3,2.5-31.1,5.8-48.4c4.4-23.2,14.8-27.6,35.7-17c48.8,24.7,97.8,49.1,153.3,54.8
			c23,2.3,45.9,5.4,68.5,10.1c3.8,0.8,7.7,1.6,11.4,2.8c22.2,7.6,26.8,20.5,12.4,38.9c-22.3,28.6-49.8,51.7-80.1,71.3
			c-17.3,11.2-34.8,22.3-53.2,31.7c-17,8.7-34.2,9.9-51.2,1.8c-24.4-11.6-49-22.9-70.6-39.7c-19.6-15.3-30.2-34.1-29.6-59.5
			C1262.9,734.1,1261.1,719.9,1259.9,701.4z"/>
		<path class="st0" d="M479.5,651.1c33.9,2.3,68.4,15.4,102.2,30.3c23.9,10.5,46.4,23.8,68.8,37.2c9.5,5.7,16.6,13.9,22.6,23
			c8,12.1,8,24.3-1.5,35.4c-26.5,31.1-53.9,61.5-85.1,88c-21.6,18.4-35.3,17.6-58.3,1.3c-35.6-25.1-64.5-56.1-84.8-94.8
			c-12.9-24.6-18-51.2-15.3-78.5C431,662.2,445.2,650.9,479.5,651.1z"/>
		<path class="st0" d="M973.2,1062.2c38.7,0.3,60.2,26.8,51.1,63.6c-4.4,17.9-0.7,34.1,5.8,50.2c9.3,23.2,13.1,47.1,12.5,72
			c-0.3,14-5.5,23.5-19.6,27.3c-15.4,4.1-27.1,13.8-36.5,26.1c-8.9,11.6-18.5,13-32.2,8.3c-28-9.6-50.7-24-65.5-51
			c-10.4-18.9-26.5-33.9-45.3-45.6c-14.2-8.8-28.3-18-39.5-30.6c-8.9-9.9-7.7-18.6,3.5-25.6c5.3-3.3,11.5-5.9,17.6-7.2
			c25.9-5.7,46.7-19.6,65.3-37.9c12.2-12,25.5-23,38.4-34.4C941.8,1066.1,957.7,1063.4,973.2,1062.2z"/>
		<path class="st0" d="M780,905.8c-5.7,36.1-16.6,69.8-49.8,90.9c-21.5,13.7-37.7,32.8-55.4,50.5c-10.1,10.1-19.9,20.5-30.9,29.5
			c-12,9.8-22.9,8.8-34.1-2c-17.4-16.7-34.2-33.9-49.5-52.6c-18-22-21.9-48.8-6.2-71.2c27.7-39.4,57.8-77.1,95.8-107.5
			c19.1-15.3,39.8-17.6,61.6-4.6c20.3,12.1,39,26.6,58,40.6C778.2,885.8,780.9,895,780,905.8z"/>
		<path class="st0" d="M1703.1,689.6c0-5.4-0.3-10.8,0-16.2c1-15.9,9.4-25.1,24.7-28.7c22.3-5.2,44.2-2.4,65.6,3.9
			c45,13.3,87.5,32.9,127.6,57.1c30.9,18.7,35.7,45.8,14.3,74.9c-19.2,26.2-39.6,51.4-63.5,73.6c-14.9,13.8-25.5,16.7-42.6,6.9
			c-51.1-29.3-91.5-69.4-117.7-122.6C1704,723.4,1702.4,706.5,1703.1,689.6z"/>
		<path class="st0" d="M997,929.3c-52.2-4.7-102.8-4.9-153.3-6.7c-28.9-1.1-36.9-15-36.8-54.3c0-31.5,17.2-55.1,49.6-59.3
			c38.3-5.1,70.2-27,101.8-48.1c9.8-6.5,19.4-13.7,29.9-18.8c29.7-14.5,55.5,0.5,56.8,33.4c1.1,27.7,10,52.8,19.7,78.1
			c12.4,32.3-5.3,66.1-37.2,72.3C1017,927.8,1006.1,928.3,997,929.3z"/>
		<path class="st0" d="M1219.8,750.9c0.7,8.8-1.6,17.3-7.3,24.5c-18.1,23.2-42.4,34.5-71.5,35.3c-8.5,0.2-18.1-2.3-21.6-10.5
			c-16-38.4-50.1-62.7-73-95.7c-16.7-24.2-36.3-46.5-39.9-77.7c-2.8-24.1,0.1-30.3,23.2-38.6c10.8-3.9,22.1-4.5,33.2-6.4
			c24.3-4.2,47.6-12,71-19.8c19.6-6.5,28.8-2.2,38.3,16.3c19.5,38.1,32.3,78,35.5,120.9c0.8,10.8,2.9,21.4,7.8,31.3
			C1218.9,736.7,1220.1,743.5,1219.8,750.9z"/>
		<path class="st0" d="M1080.7,1276.9c2.6-35.2-2.2-69.5-12-103.3c-3.3-11.4-5-22.9-2-34.9c7.4-29.6,30.8-46.3,60.7-39.7
			c31.9,7.1,61.4,4.3,89.5-12.5c3.3-2,7.3-3.5,11.1-3.9c12.7-1.4,26.3-4.2,36.5,5.9c10.5,10.5,2.3,22.3-0.8,33.2
			c-2.2,7.5-4.8,15.2-8.8,21.8c-22.9,37.7-26.8,78.4-19.6,120.9c0.6,3.4,1.2,6.8,1.4,10.2c1.9,27.6-10.4,39.6-37.9,36.1
			c-34.1-4.2-67.6-13-102.3-12.4C1082.6,1298.7,1080.2,1288.2,1080.7,1276.9z"/>
		<path class="st0" d="M992.1,1008.5c0.4,23.9-6,35.4-29.9,37.6c-44.7,4.1-78,26-108.1,56.9c-11.5,11.9-25.7,21.4-39.5,30.7
			c-19.1,13-37.5,11.8-56.1-1.7c-13.6-9.8-22.2-23.5-29.8-37.9c-4-7.4-3.2-15.1-0.8-22.9c10.5-34.3,28-65.1,48.9-93.7
			c15.3-20.8,38.3-25.3,62.3-20.7c31.4,6,62.6,5.2,93.9,0.4C978.2,950.5,991.4,961.9,992.1,1008.5z"/>
		<path class="st0" d="M1153.8,140.5c24.6,0.2,45.8,8,64,22.1c40.4,31.2,81.5,61.6,119.7,95.5c8,7.1,15.4,15.3,21.9,23.8
			c8,10.3,6.1,20.6-4.2,28.3c-13.9,10.4-29.4,18-46.1,22.3c-11.9,3.1-22.7-0.5-30.6-9.9c-32.7-38.5-75.7-50.1-124.2-49
			c-22.1,0.5-44.2,1.6-66.2-2.1c-16.1-2.8-23-10.5-19.3-26.5c6.9-29.7,17.9-58.1,30.1-86c4.1-9.3,12.6-13.7,22.3-15.2
			C1132.4,142.2,1143.7,141.5,1153.8,140.5z"/>
		<path class="st0" d="M972.9,650.2c0.8,18.8-2.6,37.2-6.8,55.3c-2.9,12.5-10.8,21.7-22.9,27.2c-31.3,14.2-62.6,28.6-93.7,43.2
			c-16.9,7.9-33.6,16.4-48.3,28.2c-11.7,9.4-24.5,9.9-37.1,2.4c-28.4-16.7-47.9-40.5-56.3-72.6c-4.2-16.2-0.4-21.7,16.2-23.9
			c22.8-3.1,44.1-9.7,63.1-22.9c7.3-5.1,14.1-10.8,19-18.3c13.9-21.4,33.6-34.2,58.4-38.9c26.1-5,52.2-9.7,78.4-13.9
			c22.9-3.6,28.9,1.8,29.8,25.4C973,644.3,972.9,647.3,972.9,650.2z"/>
		<path class="st0" d="M314.6,1343.7c6-35.5,2.9-74.2,28.2-105.8c13-16.2,26.5-21.3,44.9-11.5c33,17.5,65.8,35.6,98,54.5
			c22.6,13.2,27,28.8,16.9,52.5c-13.2,30.8-27.8,60.9-44.7,89.8c-16.5,28.3-41.9,31.8-65.9,9.3c-15.5-14.5-32.4-27.1-50.5-38.3
			C323.3,1382.8,315.2,1365.8,314.6,1343.7z"/>
		<path class="st0" d="M1629.1,1334c1.9-23.9,3.9-47.8,8.4-71.5c2.2-11.5,8.1-21.1,15.3-29.9c11.4-13.9,25.9-18.5,42.1-10.8
			c35.5,16.9,70.7,34.4,105.3,53.1c20.1,10.9,24.5,25.7,16.9,47.4c-11.8,33.9-23.9,67.6-45.3,97.1c-16.6,22.9-36.7,26.6-59.3,9.9
			c-18.1-13.5-36.3-27-55.3-39.2C1636.3,1376.7,1627.4,1358.4,1629.1,1334z"/>
		<path class="st0" d="M2070.6,1243c0,8.8,0.1,14.2,0,19.6c-0.1,2.9,0.1,6.1-0.9,8.7c-6.3,17-53.3,26.3-64.7,12.2
			c-36.9-45.8-86-57.4-141.5-51.4c-15.3,1.7-30.4,1.2-45.5-2.1c-12.5-2.8-18.1-10.8-14.3-22.7c9.8-30.4,20.1-60.7,35.4-88.9
			c6.3-11.6,17.2-17.5,30.3-18.3c39.2-2.3,74.7,5.3,104.5,34.1c24.4,23.5,51,44.7,77.1,66.4
			C2065.5,1212.8,2075.7,1226.2,2070.6,1243z"/>
		<path class="st0" d="M586.8,1106.3c1.9,0.4,4.9,0.6,7.6,1.7c34.8,14.8,71.9,15.5,108.6,18.1c12.8,0.9,24,4.4,32.7,14.4
			c15.2,17.5,13,33.5-7.6,44.3c-26.6,14-53.8,26.7-80.5,40.3c-25.4,12.9-51.4,24.1-73.4,43.4c-19.2,16.8-37.1,15.8-58.1,1
			c-14.4-10.2-27.6-22.1-42.7-31.4c-12.1-7.5-12.2-17.9-4.8-29.2c17.8-27.1,42.3-47.8,66.1-69.1c10.6-9.5,22.2-17.9,33.6-26.5
			C573.4,1109.3,579,1106.2,586.8,1106.3z"/>
		<path class="st0" d="M528,350.1c17.1-0.1,29.4,7.7,35,24c6.2,18.1,11.7,36.5,20,53.8c3.9,8.2,1.4,15.6-5,21.3
			c-6.6,5.9-13.2,12.3-20.9,16.2c-38.8,19.5-63.6,51.7-82.4,89.4c-5.8,11.6-12.7,22.1-24,29.2c-9.9,6.2-18.7,5.7-25.7-4.2
			c-4.5-6.4-9-13-12.4-20c-11-22.5-24.9-42-47.1-55.2c-12.6-7.4-13.7-17.2-3.6-28.3c39.5-43.4,82.6-82.8,131.3-115.8
			C503.6,353.6,517.3,350.1,528,350.1z"/>
		<path class="st0" d="M1767.6,337.7c18-0.5,29.9,8.3,37.1,24.1c7.6,16.5,14.7,33.3,22.6,49.7c5.5,11.4,4.4,20.9-5.6,28.9
			c-9.6,7.7-19,15.7-29,22.7c-24.9,17.6-42.3,40.8-53.5,68.9c-3.8,9.6-7.4,19.4-12.6,28.3c-11.1,18.8-30,19.2-42.6,1.5
			c-7.7-10.8-15.3-21.7-22.5-32.9c-9.5-14.8-21.2-26.7-37-35.1c-16.6-8.8-18.9-19.3-6.2-33c31.7-34.4,63.2-69,97.6-100.6
			C1730.1,347.2,1747.6,338.8,1767.6,337.7z"/>
		<path class="st0" d="M1154.2,320.8c35.1,1.1,69.4,7.3,102.3,19.6c15.9,6,23.5,16.2,18.2,30.6c-17.3,47.5-19.7,96.9-23,146.4
			c-0.8,12.1-5,24-8.2,35.9c-3,10.9-10.5,13.2-20.7,9.8c-42.5-14.4-83.2-69.2-83.4-113.3c-0.1-22.4-11-41.6-17.4-62.1
			c-3.2-10.3-7.5-20.3-10.5-30.7c-6.4-22.3,1.8-34,25-36.1C1142.4,320.3,1148.3,320.8,1154.2,320.8z"/>
		<path class="st0" d="M1718.1,1189.7c-12.7,0.5-26.6-2.5-39.9-8c-15-6.2-20.4-15.5-17.7-31.3c3.8-22.7,8.2-45.4,12.4-68.1
			c2.5-13.6,9.7-24.7,20.1-33.4c25.7-21.4,52.6-41.2,81.8-57.5c16.3-9.1,26.6-7.3,39.2,6.7c8.5,9.5,16.9,19.1,25,29
			c14.3,17.4,13.7,30.3-1.2,47c-19.7,22-39.8,43.4-61.2,63.8c-7.5,7.2-13.7,15.3-17.6,25.1C1748.5,1189.5,1747.8,1190,1718.1,1189.7
			z"/>
		<path class="st0" d="M353,1163.3c8.1-29.2,13.1-60.8,24.6-90.7c3-7.9,10.8-12.6,16.9-18.2c24.8-22.7,53.2-40.1,82.8-55.8
			c13-6.9,24.2-5.9,34,6.2c10.5,12.9,22.3,24.9,32.5,38c10.8,13.9,10,24-2.6,36.5c-21.6,21.4-43.7,42.3-65.9,63.1
			c-12,11.3-22.1,23.6-27.2,39.6c-3.8,12.1-12.8,17.6-25,15.6c-17.4-2.8-34.7-6.5-52-10.3C359.5,1184.7,354.1,1176.5,353,1163.3z"/>
		<path class="st0" d="M1605.9,1173.9c30.9,0.3,42.6,18.3,26.2,41.3c-24.5,34.2-38.9,72.4-52.6,111.3c-2.3,6.4-5.3,12.7-8.8,18.6
			c-10.7,18.1-25.8,21.6-43.2,10.2c-27.7-18.2-52.2-40-72.1-66.6c-2.6-3.5-5.4-7.1-7.3-11c-16.4-32.2-16-52.3,23-66.1
			c40.8-14.5,80.9-30.4,124.1-36.3C1599.5,1174.6,1603.9,1174.1,1605.9,1173.9z"/>
		<path class="st0" d="M296.1,1177c38.2,0.5,47.7,15.6,27.7,44.9c-21,30.8-37.9,62.9-49.5,98.3c-3.6,11.1-9.7,21.6-15.9,31.5
			c-9.4,15.1-25.6,18.5-39.3,7.8c-25.6-20.1-48.5-43.1-69.7-67.7c-2.5-3-4.5-6.4-6.5-9.9c-20-35.5-11.9-57.1,26.7-70
			c38.2-12.8,76.3-26,116.1-33.6C289.9,1177.5,294.4,1177.2,296.1,1177z"/>
		<path class="st0" d="M2070.6,542.8c0,24.1-0.6,48.2,0.2,72.2c0.4,13.2-4.7,17.1-17.3,16.7c-40.3-1.6-80.6-2.1-120.8-3.6
			c-19.4-0.7-27.9-8.6-32.7-27.8c-3.2-12.6-3.3-25.4-1.7-38.1c3.1-24.4,18.9-41.8,42.8-46c34.7-6.1,64.9-22.2,94-40.8
			c7-4.5,13.8-9.4,20.9-13.9c3.6-2.3,7.1-6.8,11.7-4.5c4.8,2.4,2.8,7.9,2.8,12.1C2070.7,493.7,2070.6,518.2,2070.6,542.8z"/>
		<path class="st0" d="M896.9,258.6c16.5,2.6,35.8,6.1,55.3,8.5c31.2,3.9,62.6,5.1,93.6,11.5c20.5,4.2,28.2,9.4,29.8,30.3
			c2.2,29.8,2.1,59.7,2.2,89.6c0,11.4-8.1,15-18.5,12.9c-17.5-3.4-35.1-8.3-49.3-18.7c-33-24-70.4-39-107-55.8
			c-10.8-4.9-21.2-10.5-30.5-17.9c-11.4-9-15.8-24.3-11.2-37C866.1,268.5,879.5,258.8,896.9,258.6z"/>
		<path class="st0" d="M2070.6,804.1c0,38.4-0.4,76.7,0.2,115.1c0.2,12.3-4.2,16.9-16.3,16c-11.3-0.8-22.6-0.1-33.9-0.8
			c-14-0.9-22.6-8.8-21.4-22.9c4.9-54.8-7.2-107.3-19.2-160.1c-10.3-45.7,33.1-87.5,79-79.2c10.5,1.9,11.7,8.3,11.7,16.9
			C2070.5,727.4,2070.6,765.8,2070.6,804.1z"/>
		<path class="st0" d="M953.6,1329.9c17.7,0,35.4-0.5,53.1,0.1c16.5,0.6,21.8,7.9,19.1,23.9c-5.9,35.1-26.2,62-50,86.7
			c-6.1,6.4-14.6,8.3-23.3,6.2c-26-6.4-52-4.8-77.5,1.3c-24.7,5.9-41.8-3.6-55.9-22.4c-6.7-9-7.5-18.3-0.4-27.1
			c14.2-17.6,28.4-35.2,43.3-52.2c10.3-11.7,24.7-15.9,39.9-16.2c17.2-0.4,34.4-0.1,51.6-0.1C953.6,1330,953.6,1330,953.6,1329.9z"
			/>
		<path class="st0" d="M1293,1446.3c-6.1,4.1-10.6,3-14.9,3c-72.8,0.1-145.7,0.1-218.5,0c-18.8,0-20-1.6-14.2-19.3
			c6.4-19.6,12.9-39.2,19.7-58.7c8.7-24.9,20.7-32.8,46.9-35.1c34.3-2.9,64.6,6.1,90.4,28.4C1232.8,1391,1262.2,1418.4,1293,1446.3z
			"/>
		<path class="st0" d="M1680.6,627.3c-2,25.4-16.2,44.8-32.2,63.1c-30.3,34.5-38.5,36.3-79.8,16.2c-17.2-8.4-33.9-18-50.1-28.2
			c-21-13.1-21.8-33.5-1.1-47.4c31.9-21.4,64.1-41.8,90.5-70.5c12.8-13.9,27.8-11.1,39,4c8.8,11.9,17,24.1,25.2,36.4
			C1677.2,608.8,1680.8,617.4,1680.6,627.3z"/>
		<path class="st0" d="M414.6,636.5c-2.9,23.9-17.1,42-33.4,58.7c-39.5,40.3-39.8,40.4-91,17.3c-13.8-6.2-27.4-13.4-40-21.9
			c-22-14.8-21.7-36.3,0.1-51.3c6.4-4.4,13.5-7.9,20.3-11.9c24.8-14.3,47.9-30.5,68.1-51c20.3-20.6,35.3-18.4,50.3,5.7
			c7.2,11.7,13.8,23.7,20.7,35.6C413.2,623.4,414.4,629.6,414.6,636.5z"/>
		<path class="st0" d="M2070.6,166.6c0,29,0.1,57.9-0.1,86.9c0,4.6,1.7,10.5-3.7,13.3c-5,2.6-10-0.2-13.5-3.4
			c-21.7-20-45.9-36.8-69.7-54c-9.8-7.1-16.9-18.1-16.7-30.1c0.9-41.1,0-82.8,26.7-118.3c12.5-16.6,28.7-19.7,47.9-11.5
			c22.7,9.7,32.8,23.8,29.8,49.5C2068.6,121.2,2070.6,144,2070.6,166.6z"/>
		<path class="st0" d="M1004.5,137.5c11.3,0,22.6-0.6,33.9,0.2c14,0.9,19.9,7.9,17.8,21.3c-4.9,31.6-22.2,56.3-45.6,76.9
			c-6.1,5.4-14.4,6.2-22.4,4.8c-26-4.4-51.8-2.6-77.6,2.5c-20.2,4-39.6-5.2-48.9-22c-5.2-9.3-4.8-17.8,2.7-25.6
			c1.7-1.8,3.5-3.5,5.1-5.3c50.4-57.6,37.4-48.2,123.2-53.1c3.9-0.2,7.9,0,11.8,0C1004.5,137.3,1004.5,137.4,1004.5,137.5z"/>
		<path class="st0" d="M2070.6,1061c0,29.5-0.2,58.9,0.1,88.4c0.1,10.4-3.2,13.2-13.1,8.6c-35.8-16.8-62.3-44.1-85-75.4
			c-8.5-11.7-6.3-25.4-2.4-38.4c9.7-32,25.7-60.4,50.3-83.6c10.1-9.5,20.9-13.9,34.8-8.1c10.8,4.5,16,10.6,15.6,23.2
			C2070,1004.1,2070.6,1032.6,2070.6,1061z"/>
		<path class="st0" d="M1960.3,881.7c-1,5.1-1.4,12.2-3.7,18.6c-7.4,20.8-8.5,42.3-7.6,64.1c0.6,14.4-1,28.5-3.7,42.5
			c-3.1,16-14,22.9-29.3,18c-25.3-8.2-50.1-18.2-72.4-32.8c-32.4-21.2-33.1-44.6-2.6-67.9c24.2-18.5,47.5-38.2,73.5-54.3
			c7.7-4.8,16.2-7.2,25-8.6C1953.9,858.9,1961.1,865.6,1960.3,881.7z"/>
		<path class="st0" d="M1799.1,623.4c-12.9-2.9-26-5.1-38.7-8.9c-11.4-3.4-16.7-11.8-13.7-24c4.8-19.5,10-39,14.8-58.5
			c3.5-14.2,15.5-21.2,25.3-29.8c16.6-14.7,35.7-25.9,55.3-36.3c12-6.4,22.3-5.1,31.1,6.4c6.5,8.6,14.7,15.9,21.3,24.3
			c10.5,13.4,10.5,21.4-1.4,33.7c-15.4,15.8-31.6,30.8-47.6,46c-10.1,9.6-18.9,19.9-23.9,33.1
			C1817.6,619.5,1809.9,623.7,1799.1,623.4z"/>
		<path class="st0" d="M1951.9,1292c12.3,0,24.6-0.5,36.8,0.1c15.4,0.8,20.4,7.2,17.3,21.9c-5.6,27-21.3,48.1-40.7,66.8
			c-4.8,4.7-10.7,4.7-16.6,3.4c-22.6-5-44.8-2.5-67.1,2.5c-15,3.4-36.7-11-40.9-26c-1.5-5.2,0-9.9,3.2-13.8
			c12.1-14.8,23.7-30.1,36.8-43.9c8.9-9.4,22.1-10.1,34.3-10.8C1927.3,1291.6,1939.6,1292.1,1951.9,1292
			C1951.9,1292.1,1951.9,1292.1,1951.9,1292z"/>
		<path class="st0" d="M471,130.5c32.5,4.7,64.9,19.3,93.9,41.2c8.7,6.6,11.5,16.8,4.1,26.1c-13.7,17.3-28,34.2-46,47.3
			c-8.4,6.1-17.4,7.9-26,1.8c-29-20.8-53.3-45-56.8-83.4C438.2,141.9,447.6,130,471,130.5z"/>
		<path class="st0" d="M1936.3,1449.4c-39.3,0-78.6,0.1-118-0.1c-5.4,0-13.4,2.9-15.4-4.6c-2.1-8.1,3.9-14,10.6-17.6
			c11.5-6.2,24.4-8,37.1-8c55.5-0.2,110.9-4,166.4-6.4c13.2-0.6,26.5-1.6,39.7-2.8c10.2-0.9,14.7,3.4,13.9,13.6
			c-0.3,3.9-0.3,7.9,0,11.8c1,11.1-4.4,14.4-14.9,14.3C2016,1449.2,1976.2,1449.4,1936.3,1449.4z"/>
		<path class="st0" d="M1660.4,1449.4c-22,0-44.1,0-66.1,0c-22.1,0-44.3,0-66.4-0.1c-6.4,0-11.9-1.5-6.1-9.2
			c9.4-12.6,18.9-25.5,32.1-34.3c20.4-13.6,41.9-10.9,61.1,1.8c16.6,11,31.3,25,46.8,37.6C1661.4,1446.6,1660.9,1448,1660.4,1449.4z
			"/>
		<path class="st0" d="M340.8,1449.4c-16.1,0-32.2,0-48.3,0c-26.5,0-53.1,0-79.6-0.1c-3.2,0-7.5,1.3-9.3-2.5
			c-1.8-3.7,1.3-6.5,3.5-9.1c8.8-10.5,17.5-21.1,28.5-29.7c16.6-12.9,34.4-12.7,52.9-5.1C310.5,1412,325.6,1429.4,340.8,1449.4z"/>
		<path class="st0" d="M2070.6,1342.2c0,5.4,0,10.8,0,16.2c-0.1,20.8-2,22.1-21.9,15.1c-17.4-6.1-27.1-19.7-25-35.1
			c2.3-16.9,15-28.7,32.6-30.9c10-1.3,14.9,2.2,14.4,12.7C2070.3,1327.4,2070.6,1334.8,2070.6,1342.2z"/>
		<path class="st0" d="M516.5,1449.4c16.8-5.8,33.4-6.9,50.1-6.9c58.9-0.2,117.7-3.9,176.5-8.3c12.1-0.9,24.7-3.3,35.8,4.4
			c2.7,1.9,6.7,3.8,5.6,7.8c-1.2,4.4-5.7,3-8.9,3c-19.6,0.2-39.3,0.1-58.9,0.1c-58.5,0-116.9,0-175.4,0
			C533,1449.4,524.7,1449.4,516.5,1449.4z"/>
	</g>
</g>
</svg>
